<?xml version="1.0" encoding="UTF-8"?>
<!DOCTYPE svg PUBLIC "-//W3C//DTD SVG 1.1//EN" "http://www.w3.org/Graphics/SVG/1.1/DTD/svg11.dtd">
<!-- Creator: CorelDRAW X7 -->
<svg xmlns="http://www.w3.org/2000/svg" xml:space="preserve" width="210mm" height="297mm" version="1.1" style="shape-rendering:geometricPrecision; text-rendering:geometricPrecision; image-rendering:optimizeQuality; fill-rule:evenodd; clip-rule:evenodd"
viewBox="0 0 21000 29700"
 xmlns:xlink="http://www.w3.org/1999/xlink">
 <defs>
  <style type="text/css">
   <![CDATA[
    .fil0 {fill:white}
    .fil3 {fill:url(#id0)}
    .fil1 {fill:url(#id1)}
    .fil2 {fill:url(#id2)}
   ]]>
  </style>
  <linearGradient id="id0" gradientUnits="userSpaceOnUse" x1="7468.83" y1="7522.89" x2="10263.9" y2="9106.81">
   <stop offset="0" style="stop-opacity:1; stop-color:#FFDB6E"/>
   <stop offset="0.258824" style="stop-opacity:1; stop-color:#FFDB6E"/>
   <stop offset="1" style="stop-opacity:1; stop-color:#FFBC5E"/>
  </linearGradient>
  <linearGradient id="id1" gradientUnits="userSpaceOnUse" xlink:href="#id0" x1="4739.2" y1="8389.01" x2="12990.2" y2="13064.6">
  </linearGradient>
  <linearGradient id="id2" gradientUnits="userSpaceOnUse" xlink:href="#id0" x1="7468.7" y1="9451.19" x2="10263.9" y2="11035.2">
  </linearGradient>
 </defs>
 <g id="Layer_x0020_1">
  <metadata id="CorelCorpID_0Corel-Layer"/>
  <g id="_2027819282976">
   <g>
    <path class="fil0" d="M6750 10210c0,-317 303,-636 659,-636l2917 0c185,0 359,95 457,193 92,93 199,266 199,443l0 67c0,319 -308,635 -647,635l-2941 0c-172,0 -342,-91 -446,-195 -101,-101 -198,-266 -198,-440l0 -67zm4232 -1863c0,104 -55,251 -103,324 -247,366 -558,310 -968,310 -712,0 -1424,0 -2135,0 -388,0 -696,57 -939,-339 -175,-285 -75,-707 217,-889 76,-47 210,-107 316,-107l2984 0c319,0 628,318 628,634l0 67zm-5307 4148c36,2 130,-17 175,-20 150,-9 443,-4 600,-4 1869,0 3737,0 5605,0 9,-52 2,-4485 2,-4944 0,-87 -6,-278 -44,-338 -58,-91 -119,-118 -257,-127 -242,-18 -508,-10 -758,-10l-4619 0c-127,0 -249,1 -372,7 -143,8 -206,22 -275,112 -77,101 -57,541 -57,709 0,1537 -5,3079 0,4615z"/>
    <path class="fil0" d="M5675 14074l0 62c0,124 143,264 270,264l5629 0 2 -594c-1869,0 -3738,0 -5607,0 -145,0 -294,132 -294,268z"/>
    <path class="fil0" d="M4339 7439c9,-19 12,-168 14,-203 33,-420 172,-752 463,-1043 131,-132 303,-259 516,-347 162,-67 347,-102 527,-116 33,-2 190,-5 207,-14l-1727 -2 0 1725z"/>
    <path class="fil0" d="M13391 7356l2 -1640 -1725 0c18,9 165,11 198,14 175,14 360,44 519,110 478,195 857,624 959,1138 12,58 21,119 28,182 4,31 10,182 19,196z"/>
    <path class="fil0" d="M4334 15738l24 0 515 0c67,-1 136,-1 204,-1l691 0c5,0 11,0 17,1l13 0c7,-1 14,-3 19,-7 -40,-10 -117,-16 -164,-25 -512,-99 -926,-433 -1155,-895 -66,-133 -108,-272 -135,-422 -6,-32 -14,-144 -24,-164l-5 1513z"/>
    <path class="fil0" d="M13391 14969l0 -1730c-14,25 -17,70 -26,100 -70,213 -225,368 -450,442l-1 647c169,31 336,195 411,345 16,31 28,57 38,91 10,33 14,77 28,105z"/>
    <path class="fil0" d="M12830 15733l565 5 -4 -568c-10,18 -22,116 -72,210 -65,121 -160,216 -281,281 -103,55 -169,52 -208,72z"/>
   </g>
   <g>
    <path class="fil1" d="M5675 14074c0,-136 149,-268 294,-268 1869,0 3738,0 5607,0l-2 594 -5629 0c-127,0 -270,-140 -270,-264l0 -62zm7130 1664l-5244 0 -1648 0c-57,-2 -92,-4 -96,-7 -40,-10 -117,-16 -164,-25 -512,-99 -926,-433 -1155,-895 -66,-133 -108,-272 -135,-422 -6,-32 -14,-144 -24,-164l0 -6786c9,-19 12,-168 14,-203 33,-420 172,-752 463,-1043 131,-132 303,-259 516,-347 162,-67 347,-102 527,-116 33,-2 190,-5 207,-14l5602 0c18,9 165,11 198,14 175,14 360,44 519,110 478,195 857,624 959,1138 12,58 21,119 28,182 4,31 10,182 19,196l0 5883c-14,25 -17,70 -26,100 -70,213 -225,368 -450,442l-1 647c169,31 336,195 411,345 16,31 28,57 38,91 10,33 14,77 28,105l0 201c-10,18 -22,116 -72,210 -65,121 -160,216 -281,281 -103,55 -169,52 -208,72 -3,2 -12,4 -25,5zm-7130 -3243c-5,-1536 0,-3078 0,-4615 0,-168 -20,-608 57,-709 69,-90 132,-104 275,-112 123,-6 245,-7 372,-7l4619 0c250,0 516,-8 758,10 138,9 199,36 257,127 38,60 44,251 44,338 0,459 7,4892 -2,4944 -1868,0 -3736,0 -5605,0 -157,0 -450,-5 -600,4 -45,3 -139,22 -175,20z"/>
    <path class="fil2" d="M6750 10210l0 67c0,174 97,339 198,440 104,104 274,195 446,195l2941 0c339,0 647,-316 647,-635l0 -67c0,-177 -107,-350 -199,-443 -98,-98 -272,-193 -457,-193l-2917 0c-356,0 -659,319 -659,636z"/>
    <path class="fil3" d="M10982 8347l0 -67c0,-316 -309,-634 -628,-634l-2984 0c-106,0 -240,60 -316,107 -292,182 -392,604 -217,889 243,396 551,339 939,339 711,0 1423,0 2135,0 410,0 721,56 968,-310 48,-73 103,-220 103,-324z"/>
   </g>
  </g>
 </g>
</svg>
